<mxfile host="app.diagrams.net" modified="2023-06-09T18:44:00.468Z" agent="Mozilla/5.0 (Windows NT 10.0; Win64; x64) AppleWebKit/537.36 (KHTML, like Gecko) Chrome/114.0.0.0 Safari/537.36 Edg/114.0.1823.41" etag="-R7EhL_F_T2yGGvUc_Zj" version="21.3.8" type="gitlab">
  <diagram id="C5RBs43oDa-KdzZeNtuy" name="Page-1">
    <mxGraphModel dx="2365" dy="2026" grid="1" gridSize="10" guides="1" tooltips="1" connect="1" arrows="1" fold="1" page="1" pageScale="1" pageWidth="827" pageHeight="1169" math="0" shadow="0">
      <root>
        <mxCell id="WIyWlLk6GJQsqaUBKTNV-0" />
        <mxCell id="WIyWlLk6GJQsqaUBKTNV-1" parent="WIyWlLk6GJQsqaUBKTNV-0" />
        <mxCell id="zkfFHV4jXpPFQw0GAbJ--0" value="Personnel" style="swimlane;fontStyle=2;align=center;verticalAlign=top;childLayout=stackLayout;horizontal=1;startSize=26;horizontalStack=0;resizeParent=1;resizeLast=0;collapsible=1;marginBottom=0;rounded=0;shadow=0;strokeWidth=1;" parent="WIyWlLk6GJQsqaUBKTNV-1" vertex="1">
          <mxGeometry x="460" y="110" width="160" height="280" as="geometry">
            <mxRectangle x="230" y="140" width="160" height="26" as="alternateBounds" />
          </mxGeometry>
        </mxCell>
        <mxCell id="zkfFHV4jXpPFQw0GAbJ--1" value="id:String   &#xa;nomPrenom :String&#xa;matricule: String &#xa;poste : String &#xa;typeContart: String&#xa;rib: String&#xa;adresse: String&#xa;num: String&#xa;dateNaissance: Date&#xa;datEmbauche: Date" style="text;align=left;verticalAlign=top;spacingLeft=4;spacingRight=4;overflow=hidden;rotatable=0;points=[[0,0.5],[1,0.5]];portConstraint=eastwest;" parent="zkfFHV4jXpPFQw0GAbJ--0" vertex="1">
          <mxGeometry y="26" width="160" height="154" as="geometry" />
        </mxCell>
        <mxCell id="zkfFHV4jXpPFQw0GAbJ--4" value="" style="line;html=1;strokeWidth=1;align=left;verticalAlign=middle;spacingTop=-1;spacingLeft=3;spacingRight=3;rotatable=0;labelPosition=right;points=[];portConstraint=eastwest;" parent="zkfFHV4jXpPFQw0GAbJ--0" vertex="1">
          <mxGeometry y="180" width="160" height="10" as="geometry" />
        </mxCell>
        <mxCell id="keGv5HAL7lmnqRSHpo0z-4" value="getPersonnels()&lt;br&gt;getConducteurs()&lt;br&gt;update()&lt;br&gt;delete()&lt;br&gt;mettreEnVeille()" style="text;strokeColor=none;fillColor=none;align=left;verticalAlign=top;spacingLeft=4;spacingRight=4;overflow=hidden;rotatable=0;points=[[0,0.5],[1,0.5]];portConstraint=eastwest;whiteSpace=wrap;html=1;" vertex="1" parent="zkfFHV4jXpPFQw0GAbJ--0">
          <mxGeometry y="190" width="160" height="80" as="geometry" />
        </mxCell>
        <mxCell id="zkfFHV4jXpPFQw0GAbJ--6" value="Compte" style="swimlane;fontStyle=0;align=center;verticalAlign=top;childLayout=stackLayout;horizontal=1;startSize=26;horizontalStack=0;resizeParent=1;resizeLast=0;collapsible=1;marginBottom=0;rounded=0;shadow=0;strokeWidth=1;" parent="WIyWlLk6GJQsqaUBKTNV-1" vertex="1">
          <mxGeometry x="-20" y="-80" width="160" height="160" as="geometry">
            <mxRectangle x="130" y="380" width="160" height="26" as="alternateBounds" />
          </mxGeometry>
        </mxCell>
        <mxCell id="zkfFHV4jXpPFQw0GAbJ--7" value="id: String&#xa;email: Email&#xa;password: String" style="text;align=left;verticalAlign=top;spacingLeft=4;spacingRight=4;overflow=hidden;rotatable=0;points=[[0,0.5],[1,0.5]];portConstraint=eastwest;" parent="zkfFHV4jXpPFQw0GAbJ--6" vertex="1">
          <mxGeometry y="26" width="160" height="54" as="geometry" />
        </mxCell>
        <mxCell id="zkfFHV4jXpPFQw0GAbJ--9" value="" style="line;html=1;strokeWidth=1;align=left;verticalAlign=middle;spacingTop=-1;spacingLeft=3;spacingRight=3;rotatable=0;labelPosition=right;points=[];portConstraint=eastwest;" parent="zkfFHV4jXpPFQw0GAbJ--6" vertex="1">
          <mxGeometry y="80" width="160" height="8" as="geometry" />
        </mxCell>
        <mxCell id="zkfFHV4jXpPFQw0GAbJ--10" value="getCompte(): Compte&#xa;deleteCompte(): void&#xa;updateCompte(): void&#xa;addCompte(): void" style="text;align=left;verticalAlign=top;spacingLeft=4;spacingRight=4;overflow=hidden;rotatable=0;points=[[0,0.5],[1,0.5]];portConstraint=eastwest;fontStyle=4" parent="zkfFHV4jXpPFQw0GAbJ--6" vertex="1">
          <mxGeometry y="88" width="160" height="64" as="geometry" />
        </mxCell>
        <mxCell id="keGv5HAL7lmnqRSHpo0z-5" value="Role" style="swimlane;fontStyle=0;align=center;verticalAlign=top;childLayout=stackLayout;horizontal=1;startSize=26;horizontalStack=0;resizeParent=1;resizeLast=0;collapsible=1;marginBottom=0;rounded=0;shadow=0;strokeWidth=1;" vertex="1" parent="WIyWlLk6GJQsqaUBKTNV-1">
          <mxGeometry x="-60" y="180" width="160" height="160" as="geometry">
            <mxRectangle x="130" y="380" width="160" height="26" as="alternateBounds" />
          </mxGeometry>
        </mxCell>
        <mxCell id="keGv5HAL7lmnqRSHpo0z-6" value="id: String&#xa;nom: String" style="text;align=left;verticalAlign=top;spacingLeft=4;spacingRight=4;overflow=hidden;rotatable=0;points=[[0,0.5],[1,0.5]];portConstraint=eastwest;" vertex="1" parent="keGv5HAL7lmnqRSHpo0z-5">
          <mxGeometry y="26" width="160" height="44" as="geometry" />
        </mxCell>
        <mxCell id="keGv5HAL7lmnqRSHpo0z-7" value="" style="line;html=1;strokeWidth=1;align=left;verticalAlign=middle;spacingTop=-1;spacingLeft=3;spacingRight=3;rotatable=0;labelPosition=right;points=[];portConstraint=eastwest;" vertex="1" parent="keGv5HAL7lmnqRSHpo0z-5">
          <mxGeometry y="70" width="160" height="8" as="geometry" />
        </mxCell>
        <mxCell id="keGv5HAL7lmnqRSHpo0z-8" value="getRole(): Role&#xa;deleteRole(): void&#xa;updateRole(): void&#xa;addRole(): void" style="text;align=left;verticalAlign=top;spacingLeft=4;spacingRight=4;overflow=hidden;rotatable=0;points=[[0,0.5],[1,0.5]];portConstraint=eastwest;fontStyle=4" vertex="1" parent="keGv5HAL7lmnqRSHpo0z-5">
          <mxGeometry y="78" width="160" height="64" as="geometry" />
        </mxCell>
        <mxCell id="keGv5HAL7lmnqRSHpo0z-9" value="Fournisseur" style="swimlane;fontStyle=2;align=center;verticalAlign=top;childLayout=stackLayout;horizontal=1;startSize=26;horizontalStack=0;resizeParent=1;resizeLast=0;collapsible=1;marginBottom=0;rounded=0;shadow=0;strokeWidth=1;" vertex="1" parent="WIyWlLk6GJQsqaUBKTNV-1">
          <mxGeometry x="160" y="290" width="160" height="210" as="geometry">
            <mxRectangle x="230" y="140" width="160" height="26" as="alternateBounds" />
          </mxGeometry>
        </mxCell>
        <mxCell id="keGv5HAL7lmnqRSHpo0z-10" value="id: String&#xa;nom: String&#xa;adresse: String&#xa;téléphone: String&#xa;email: String" style="text;align=left;verticalAlign=top;spacingLeft=4;spacingRight=4;overflow=hidden;rotatable=0;points=[[0,0.5],[1,0.5]];portConstraint=eastwest;" vertex="1" parent="keGv5HAL7lmnqRSHpo0z-9">
          <mxGeometry y="26" width="160" height="84" as="geometry" />
        </mxCell>
        <mxCell id="keGv5HAL7lmnqRSHpo0z-11" value="" style="line;html=1;strokeWidth=1;align=left;verticalAlign=middle;spacingTop=-1;spacingLeft=3;spacingRight=3;rotatable=0;labelPosition=right;points=[];portConstraint=eastwest;" vertex="1" parent="keGv5HAL7lmnqRSHpo0z-9">
          <mxGeometry y="110" width="160" height="10" as="geometry" />
        </mxCell>
        <mxCell id="keGv5HAL7lmnqRSHpo0z-12" value="&lt;div&gt;getFournisseur(): Fournisseur&lt;/div&gt;&lt;div&gt;deleteFournisseur(): void&lt;/div&gt;&lt;div&gt;updateFournisseur(): void&lt;/div&gt;&lt;div&gt;addFournisseur(): void&lt;/div&gt;" style="text;strokeColor=none;fillColor=none;align=left;verticalAlign=top;spacingLeft=4;spacingRight=4;overflow=hidden;rotatable=0;points=[[0,0.5],[1,0.5]];portConstraint=eastwest;whiteSpace=wrap;html=1;" vertex="1" parent="keGv5HAL7lmnqRSHpo0z-9">
          <mxGeometry y="120" width="160" height="80" as="geometry" />
        </mxCell>
        <mxCell id="keGv5HAL7lmnqRSHpo0z-13" value="Client" style="swimlane;fontStyle=2;align=center;verticalAlign=top;childLayout=stackLayout;horizontal=1;startSize=26;horizontalStack=0;resizeParent=1;resizeLast=0;collapsible=1;marginBottom=0;rounded=0;shadow=0;strokeWidth=1;" vertex="1" parent="WIyWlLk6GJQsqaUBKTNV-1">
          <mxGeometry x="230" y="-70" width="160" height="190" as="geometry">
            <mxRectangle x="230" y="140" width="160" height="26" as="alternateBounds" />
          </mxGeometry>
        </mxCell>
        <mxCell id="keGv5HAL7lmnqRSHpo0z-14" value="id: String&#xa;nom: String&#xa;adresse: String&#xa;téléphone: String&#xa;email: String" style="text;align=left;verticalAlign=top;spacingLeft=4;spacingRight=4;overflow=hidden;rotatable=0;points=[[0,0.5],[1,0.5]];portConstraint=eastwest;" vertex="1" parent="keGv5HAL7lmnqRSHpo0z-13">
          <mxGeometry y="26" width="160" height="84" as="geometry" />
        </mxCell>
        <mxCell id="keGv5HAL7lmnqRSHpo0z-15" value="" style="line;html=1;strokeWidth=1;align=left;verticalAlign=middle;spacingTop=-1;spacingLeft=3;spacingRight=3;rotatable=0;labelPosition=right;points=[];portConstraint=eastwest;" vertex="1" parent="keGv5HAL7lmnqRSHpo0z-13">
          <mxGeometry y="110" width="160" height="10" as="geometry" />
        </mxCell>
        <mxCell id="keGv5HAL7lmnqRSHpo0z-16" value="&lt;div&gt;getClient(): Client&lt;/div&gt;&lt;div&gt;deleteClient(): void&lt;/div&gt;&lt;div&gt;updateClient(): void&lt;/div&gt;&lt;div&gt;addClient(): void&lt;/div&gt;" style="text;strokeColor=none;fillColor=none;align=left;verticalAlign=top;spacingLeft=4;spacingRight=4;overflow=hidden;rotatable=0;points=[[0,0.5],[1,0.5]];portConstraint=eastwest;whiteSpace=wrap;html=1;" vertex="1" parent="keGv5HAL7lmnqRSHpo0z-13">
          <mxGeometry y="120" width="160" height="70" as="geometry" />
        </mxCell>
        <mxCell id="keGv5HAL7lmnqRSHpo0z-17" value="Nomenclature" style="swimlane;fontStyle=2;align=center;verticalAlign=top;childLayout=stackLayout;horizontal=1;startSize=26;horizontalStack=0;resizeParent=1;resizeLast=0;collapsible=1;marginBottom=0;rounded=0;shadow=0;strokeWidth=1;" vertex="1" parent="WIyWlLk6GJQsqaUBKTNV-1">
          <mxGeometry x="470" y="-270" width="160" height="210" as="geometry">
            <mxRectangle x="230" y="140" width="160" height="26" as="alternateBounds" />
          </mxGeometry>
        </mxCell>
        <mxCell id="keGv5HAL7lmnqRSHpo0z-18" value="id: String&#xa;nom: String&#xa;description: String&#xa;dateCréation: Date&#xa;référence: String" style="text;align=left;verticalAlign=top;spacingLeft=4;spacingRight=4;overflow=hidden;rotatable=0;points=[[0,0.5],[1,0.5]];portConstraint=eastwest;" vertex="1" parent="keGv5HAL7lmnqRSHpo0z-17">
          <mxGeometry y="26" width="160" height="84" as="geometry" />
        </mxCell>
        <mxCell id="keGv5HAL7lmnqRSHpo0z-19" value="" style="line;html=1;strokeWidth=1;align=left;verticalAlign=middle;spacingTop=-1;spacingLeft=3;spacingRight=3;rotatable=0;labelPosition=right;points=[];portConstraint=eastwest;" vertex="1" parent="keGv5HAL7lmnqRSHpo0z-17">
          <mxGeometry y="110" width="160" height="10" as="geometry" />
        </mxCell>
        <mxCell id="keGv5HAL7lmnqRSHpo0z-20" value="&lt;div&gt;getNomenclature(): Nomenclature&lt;/div&gt;&lt;div&gt;deleteNomenclature(): void&lt;/div&gt;&lt;div&gt;updateNomenclature(): void&lt;/div&gt;&lt;div&gt;addNomenclature(): void&lt;/div&gt;" style="text;strokeColor=none;fillColor=none;align=left;verticalAlign=top;spacingLeft=4;spacingRight=4;overflow=hidden;rotatable=0;points=[[0,0.5],[1,0.5]];portConstraint=eastwest;whiteSpace=wrap;html=1;" vertex="1" parent="keGv5HAL7lmnqRSHpo0z-17">
          <mxGeometry y="120" width="160" height="90" as="geometry" />
        </mxCell>
        <mxCell id="keGv5HAL7lmnqRSHpo0z-21" value="Contact" style="swimlane;fontStyle=2;align=center;verticalAlign=top;childLayout=stackLayout;horizontal=1;startSize=26;horizontalStack=0;resizeParent=1;resizeLast=0;collapsible=1;marginBottom=0;rounded=0;shadow=0;strokeWidth=1;" vertex="1" parent="WIyWlLk6GJQsqaUBKTNV-1">
          <mxGeometry x="730" y="-220" width="160" height="200" as="geometry">
            <mxRectangle x="230" y="140" width="160" height="26" as="alternateBounds" />
          </mxGeometry>
        </mxCell>
        <mxCell id="keGv5HAL7lmnqRSHpo0z-22" value="id: String&#xa;nom: String&#xa;prénom: String&#xa;email: String&#xa;téléphone: String" style="text;align=left;verticalAlign=top;spacingLeft=4;spacingRight=4;overflow=hidden;rotatable=0;points=[[0,0.5],[1,0.5]];portConstraint=eastwest;" vertex="1" parent="keGv5HAL7lmnqRSHpo0z-21">
          <mxGeometry y="26" width="160" height="84" as="geometry" />
        </mxCell>
        <mxCell id="keGv5HAL7lmnqRSHpo0z-23" value="" style="line;html=1;strokeWidth=1;align=left;verticalAlign=middle;spacingTop=-1;spacingLeft=3;spacingRight=3;rotatable=0;labelPosition=right;points=[];portConstraint=eastwest;" vertex="1" parent="keGv5HAL7lmnqRSHpo0z-21">
          <mxGeometry y="110" width="160" height="10" as="geometry" />
        </mxCell>
        <mxCell id="keGv5HAL7lmnqRSHpo0z-24" value="&lt;div&gt;getContact(): Contact&lt;/div&gt;&lt;div&gt;deleteContact(): void&lt;/div&gt;&lt;div&gt;updateContact(): void&lt;/div&gt;&lt;div&gt;addContact(): void&lt;/div&gt;" style="text;strokeColor=none;fillColor=none;align=left;verticalAlign=top;spacingLeft=4;spacingRight=4;overflow=hidden;rotatable=0;points=[[0,0.5],[1,0.5]];portConstraint=eastwest;whiteSpace=wrap;html=1;" vertex="1" parent="keGv5HAL7lmnqRSHpo0z-21">
          <mxGeometry y="120" width="160" height="80" as="geometry" />
        </mxCell>
        <mxCell id="keGv5HAL7lmnqRSHpo0z-25" value="Commande" style="swimlane;fontStyle=2;align=center;verticalAlign=top;childLayout=stackLayout;horizontal=1;startSize=26;horizontalStack=0;resizeParent=1;resizeLast=0;collapsible=1;marginBottom=0;rounded=0;shadow=0;strokeWidth=1;" vertex="1" parent="WIyWlLk6GJQsqaUBKTNV-1">
          <mxGeometry x="750" y="190" width="160" height="200" as="geometry">
            <mxRectangle x="230" y="140" width="160" height="26" as="alternateBounds" />
          </mxGeometry>
        </mxCell>
        <mxCell id="keGv5HAL7lmnqRSHpo0z-26" value="id: String&#xa;date: Date&#xa;quantité: int&#xa;statut: String&#xa;client: Client" style="text;align=left;verticalAlign=top;spacingLeft=4;spacingRight=4;overflow=hidden;rotatable=0;points=[[0,0.5],[1,0.5]];portConstraint=eastwest;" vertex="1" parent="keGv5HAL7lmnqRSHpo0z-25">
          <mxGeometry y="26" width="160" height="84" as="geometry" />
        </mxCell>
        <mxCell id="keGv5HAL7lmnqRSHpo0z-27" value="" style="line;html=1;strokeWidth=1;align=left;verticalAlign=middle;spacingTop=-1;spacingLeft=3;spacingRight=3;rotatable=0;labelPosition=right;points=[];portConstraint=eastwest;" vertex="1" parent="keGv5HAL7lmnqRSHpo0z-25">
          <mxGeometry y="110" width="160" height="10" as="geometry" />
        </mxCell>
        <mxCell id="keGv5HAL7lmnqRSHpo0z-28" value="&lt;div&gt;getCommande(): Commande&lt;/div&gt;&lt;div&gt;deleteCommande(): void&lt;/div&gt;&lt;div&gt;updateCommande(): void&lt;/div&gt;&lt;div&gt;addCommande(): void&lt;/div&gt;" style="text;strokeColor=none;fillColor=none;align=left;verticalAlign=top;spacingLeft=4;spacingRight=4;overflow=hidden;rotatable=0;points=[[0,0.5],[1,0.5]];portConstraint=eastwest;whiteSpace=wrap;html=1;" vertex="1" parent="keGv5HAL7lmnqRSHpo0z-25">
          <mxGeometry y="120" width="160" height="80" as="geometry" />
        </mxCell>
        <mxCell id="keGv5HAL7lmnqRSHpo0z-29" value="LigneCommande" style="swimlane;fontStyle=2;align=center;verticalAlign=top;childLayout=stackLayout;horizontal=1;startSize=26;horizontalStack=0;resizeParent=1;resizeLast=0;collapsible=1;marginBottom=0;rounded=0;shadow=0;strokeWidth=1;" vertex="1" parent="WIyWlLk6GJQsqaUBKTNV-1">
          <mxGeometry x="940" y="-50" width="180" height="220" as="geometry">
            <mxRectangle x="230" y="140" width="160" height="26" as="alternateBounds" />
          </mxGeometry>
        </mxCell>
        <mxCell id="keGv5HAL7lmnqRSHpo0z-30" value="id: String&#xa;quantite: int&#xa;prixUnitaire: double&#xa;commande: Commande&#xa;article: Nomenclature" style="text;align=left;verticalAlign=top;spacingLeft=4;spacingRight=4;overflow=hidden;rotatable=0;points=[[0,0.5],[1,0.5]];portConstraint=eastwest;" vertex="1" parent="keGv5HAL7lmnqRSHpo0z-29">
          <mxGeometry y="26" width="180" height="84" as="geometry" />
        </mxCell>
        <mxCell id="keGv5HAL7lmnqRSHpo0z-31" value="" style="line;html=1;strokeWidth=1;align=left;verticalAlign=middle;spacingTop=-1;spacingLeft=3;spacingRight=3;rotatable=0;labelPosition=right;points=[];portConstraint=eastwest;" vertex="1" parent="keGv5HAL7lmnqRSHpo0z-29">
          <mxGeometry y="110" width="180" height="10" as="geometry" />
        </mxCell>
        <mxCell id="keGv5HAL7lmnqRSHpo0z-32" value="&lt;div&gt;getLigneCommande(): LigneCommande&lt;/div&gt;&lt;div&gt;deleteLigneCommande(): void&lt;/div&gt;&lt;div&gt;updateLigneCommande(): void&lt;/div&gt;&lt;div&gt;addLigneCommande(): void&lt;/div&gt;" style="text;strokeColor=none;fillColor=none;align=left;verticalAlign=top;spacingLeft=4;spacingRight=4;overflow=hidden;rotatable=0;points=[[0,0.5],[1,0.5]];portConstraint=eastwest;whiteSpace=wrap;html=1;" vertex="1" parent="keGv5HAL7lmnqRSHpo0z-29">
          <mxGeometry y="120" width="180" height="100" as="geometry" />
        </mxCell>
        <mxCell id="keGv5HAL7lmnqRSHpo0z-33" value="Machine" style="swimlane;fontStyle=2;align=center;verticalAlign=top;childLayout=stackLayout;horizontal=1;startSize=26;horizontalStack=0;resizeParent=1;resizeLast=0;collapsible=1;marginBottom=0;rounded=0;shadow=0;strokeWidth=1;" vertex="1" parent="WIyWlLk6GJQsqaUBKTNV-1">
          <mxGeometry x="1230" y="-280" width="160" height="200" as="geometry">
            <mxRectangle x="230" y="140" width="160" height="26" as="alternateBounds" />
          </mxGeometry>
        </mxCell>
        <mxCell id="keGv5HAL7lmnqRSHpo0z-34" value="id: String&#xa;libelleMachine: String&#xa;type: String&#xa;statut: String&#xa;dateMaintenance: Date" style="text;align=left;verticalAlign=top;spacingLeft=4;spacingRight=4;overflow=hidden;rotatable=0;points=[[0,0.5],[1,0.5]];portConstraint=eastwest;" vertex="1" parent="keGv5HAL7lmnqRSHpo0z-33">
          <mxGeometry y="26" width="160" height="84" as="geometry" />
        </mxCell>
        <mxCell id="keGv5HAL7lmnqRSHpo0z-35" value="" style="line;html=1;strokeWidth=1;align=left;verticalAlign=middle;spacingTop=-1;spacingLeft=3;spacingRight=3;rotatable=0;labelPosition=right;points=[];portConstraint=eastwest;" vertex="1" parent="keGv5HAL7lmnqRSHpo0z-33">
          <mxGeometry y="110" width="160" height="10" as="geometry" />
        </mxCell>
        <mxCell id="keGv5HAL7lmnqRSHpo0z-36" value="&lt;div&gt;getMachine(): Machine&lt;/div&gt;&lt;div&gt;deleteMachine(): void&lt;/div&gt;&lt;div&gt;updateMachine(): void&lt;/div&gt;&lt;div&gt;addMachine(): void&lt;/div&gt;" style="text;strokeColor=none;fillColor=none;align=left;verticalAlign=top;spacingLeft=4;spacingRight=4;overflow=hidden;rotatable=0;points=[[0,0.5],[1,0.5]];portConstraint=eastwest;whiteSpace=wrap;html=1;" vertex="1" parent="keGv5HAL7lmnqRSHpo0z-33">
          <mxGeometry y="120" width="160" height="80" as="geometry" />
        </mxCell>
        <mxCell id="keGv5HAL7lmnqRSHpo0z-37" value="EtatMachine" style="swimlane;fontStyle=2;align=center;verticalAlign=top;childLayout=stackLayout;horizontal=1;startSize=26;horizontalStack=0;resizeParent=1;resizeLast=0;collapsible=1;marginBottom=0;rounded=0;shadow=0;strokeWidth=1;" vertex="1" parent="WIyWlLk6GJQsqaUBKTNV-1">
          <mxGeometry x="1270" y="20" width="160" height="210" as="geometry">
            <mxRectangle x="230" y="140" width="160" height="26" as="alternateBounds" />
          </mxGeometry>
        </mxCell>
        <mxCell id="keGv5HAL7lmnqRSHpo0z-38" value="id: String&#xa;machine: Machine&#xa;date: Date&#xa;statut: String" style="text;align=left;verticalAlign=top;spacingLeft=4;spacingRight=4;overflow=hidden;rotatable=0;points=[[0,0.5],[1,0.5]];portConstraint=eastwest;" vertex="1" parent="keGv5HAL7lmnqRSHpo0z-37">
          <mxGeometry y="26" width="160" height="84" as="geometry" />
        </mxCell>
        <mxCell id="keGv5HAL7lmnqRSHpo0z-39" value="" style="line;html=1;strokeWidth=1;align=left;verticalAlign=middle;spacingTop=-1;spacingLeft=3;spacingRight=3;rotatable=0;labelPosition=right;points=[];portConstraint=eastwest;" vertex="1" parent="keGv5HAL7lmnqRSHpo0z-37">
          <mxGeometry y="110" width="160" height="10" as="geometry" />
        </mxCell>
        <mxCell id="keGv5HAL7lmnqRSHpo0z-40" value="&lt;div&gt;getEtatMachine(): EtatMachine&lt;/div&gt;&lt;div&gt;deleteEtatMachine(): void&lt;/div&gt;&lt;div&gt;updateEtatMachine(): void&lt;/div&gt;&lt;div&gt;addEtatMachine(): void&lt;/div&gt;" style="text;strokeColor=none;fillColor=none;align=left;verticalAlign=top;spacingLeft=4;spacingRight=4;overflow=hidden;rotatable=0;points=[[0,0.5],[1,0.5]];portConstraint=eastwest;whiteSpace=wrap;html=1;" vertex="1" parent="keGv5HAL7lmnqRSHpo0z-37">
          <mxGeometry y="120" width="160" height="90" as="geometry" />
        </mxCell>
        <mxCell id="keGv5HAL7lmnqRSHpo0z-41" value="EtapeProduction" style="swimlane;fontStyle=2;align=center;verticalAlign=top;childLayout=stackLayout;horizontal=1;startSize=26;horizontalStack=0;resizeParent=1;resizeLast=0;collapsible=1;marginBottom=0;rounded=0;shadow=0;strokeWidth=1;" vertex="1" parent="WIyWlLk6GJQsqaUBKTNV-1">
          <mxGeometry x="1494" y="-260" width="160" height="200" as="geometry">
            <mxRectangle x="230" y="140" width="160" height="26" as="alternateBounds" />
          </mxGeometry>
        </mxCell>
        <mxCell id="keGv5HAL7lmnqRSHpo0z-42" value="id: String&#xa;libelleMachine: String&#xa;type: String&#xa;statut: String&#xa;dateMaintenance: Date" style="text;align=left;verticalAlign=top;spacingLeft=4;spacingRight=4;overflow=hidden;rotatable=0;points=[[0,0.5],[1,0.5]];portConstraint=eastwest;" vertex="1" parent="keGv5HAL7lmnqRSHpo0z-41">
          <mxGeometry y="26" width="160" height="84" as="geometry" />
        </mxCell>
        <mxCell id="keGv5HAL7lmnqRSHpo0z-43" value="" style="line;html=1;strokeWidth=1;align=left;verticalAlign=middle;spacingTop=-1;spacingLeft=3;spacingRight=3;rotatable=0;labelPosition=right;points=[];portConstraint=eastwest;" vertex="1" parent="keGv5HAL7lmnqRSHpo0z-41">
          <mxGeometry y="110" width="160" height="10" as="geometry" />
        </mxCell>
        <mxCell id="keGv5HAL7lmnqRSHpo0z-44" value="&lt;div&gt;getMachine(): Machine&lt;/div&gt;&lt;div&gt;deleteMachine(): void&lt;/div&gt;&lt;div&gt;updateMachine(): void&lt;/div&gt;&lt;div&gt;addMachine(): void&lt;/div&gt;" style="text;strokeColor=none;fillColor=none;align=left;verticalAlign=top;spacingLeft=4;spacingRight=4;overflow=hidden;rotatable=0;points=[[0,0.5],[1,0.5]];portConstraint=eastwest;whiteSpace=wrap;html=1;" vertex="1" parent="keGv5HAL7lmnqRSHpo0z-41">
          <mxGeometry y="120" width="160" height="80" as="geometry" />
        </mxCell>
        <mxCell id="keGv5HAL7lmnqRSHpo0z-45" value="EtapeProduction" style="swimlane;fontStyle=2;align=center;verticalAlign=top;childLayout=stackLayout;horizontal=1;startSize=26;horizontalStack=0;resizeParent=1;resizeLast=0;collapsible=1;marginBottom=0;rounded=0;shadow=0;strokeWidth=1;" vertex="1" parent="WIyWlLk6GJQsqaUBKTNV-1">
          <mxGeometry x="1050" y="230" width="180" height="230" as="geometry">
            <mxRectangle x="230" y="140" width="160" height="26" as="alternateBounds" />
          </mxGeometry>
        </mxCell>
        <mxCell id="keGv5HAL7lmnqRSHpo0z-46" value="id: String&#xa;nom: String&#xa;description: String&#xa;machine: Machine" style="text;align=left;verticalAlign=top;spacingLeft=4;spacingRight=4;overflow=hidden;rotatable=0;points=[[0,0.5],[1,0.5]];portConstraint=eastwest;" vertex="1" parent="keGv5HAL7lmnqRSHpo0z-45">
          <mxGeometry y="26" width="180" height="104" as="geometry" />
        </mxCell>
        <mxCell id="keGv5HAL7lmnqRSHpo0z-47" value="" style="line;html=1;strokeWidth=1;align=left;verticalAlign=middle;spacingTop=-1;spacingLeft=3;spacingRight=3;rotatable=0;labelPosition=right;points=[];portConstraint=eastwest;" vertex="1" parent="keGv5HAL7lmnqRSHpo0z-45">
          <mxGeometry y="130" width="180" height="10" as="geometry" />
        </mxCell>
        <mxCell id="keGv5HAL7lmnqRSHpo0z-48" value="&lt;div&gt;getEtapeProduction(): EtapeProduction&lt;/div&gt;&lt;div&gt;deleteEtapeProduction(): void&lt;/div&gt;&lt;div&gt;updateEtapeProduction(): void&lt;/div&gt;&lt;div&gt;addEtapeProduction(): void&lt;/div&gt;" style="text;strokeColor=none;fillColor=none;align=left;verticalAlign=top;spacingLeft=4;spacingRight=4;overflow=hidden;rotatable=0;points=[[0,0.5],[1,0.5]];portConstraint=eastwest;whiteSpace=wrap;html=1;" vertex="1" parent="keGv5HAL7lmnqRSHpo0z-45">
          <mxGeometry y="140" width="180" height="80" as="geometry" />
        </mxCell>
        <mxCell id="keGv5HAL7lmnqRSHpo0z-49" value="OF" style="swimlane;fontStyle=2;align=center;verticalAlign=top;childLayout=stackLayout;horizontal=1;startSize=26;horizontalStack=0;resizeParent=1;resizeLast=0;collapsible=1;marginBottom=0;rounded=0;shadow=0;strokeWidth=1;" vertex="1" parent="WIyWlLk6GJQsqaUBKTNV-1">
          <mxGeometry x="1360" y="260" width="250" height="310" as="geometry">
            <mxRectangle x="230" y="140" width="160" height="26" as="alternateBounds" />
          </mxGeometry>
        </mxCell>
        <mxCell id="keGv5HAL7lmnqRSHpo0z-50" value="id: String&#xa;numero: String&#xa;dateCreation: Date&#xa;dateDebut: Date&#xa;dateFin: Date&#xa;etat: String&#xa;commande: Commande&#xa;lignesCommande: List&lt;LigneCommande&gt;&#xa;etapesProduction: List&lt;EtapeProduction&gt;&#xa;duréePrevue: int&#xa;dureeReelle: int" style="text;align=left;verticalAlign=top;spacingLeft=4;spacingRight=4;overflow=hidden;rotatable=0;points=[[0,0.5],[1,0.5]];portConstraint=eastwest;" vertex="1" parent="keGv5HAL7lmnqRSHpo0z-49">
          <mxGeometry y="26" width="250" height="174" as="geometry" />
        </mxCell>
        <mxCell id="keGv5HAL7lmnqRSHpo0z-51" value="" style="line;html=1;strokeWidth=1;align=left;verticalAlign=middle;spacingTop=-1;spacingLeft=3;spacingRight=3;rotatable=0;labelPosition=right;points=[];portConstraint=eastwest;" vertex="1" parent="keGv5HAL7lmnqRSHpo0z-49">
          <mxGeometry y="200" width="250" height="10" as="geometry" />
        </mxCell>
        <mxCell id="keGv5HAL7lmnqRSHpo0z-52" value="&lt;div&gt;getOF(): OF&lt;/div&gt;&lt;div&gt;deleteOF(): void&lt;/div&gt;&lt;div&gt;updateOF(): void&lt;/div&gt;&lt;div&gt;addOF(): void&lt;/div&gt;" style="text;strokeColor=none;fillColor=none;align=left;verticalAlign=top;spacingLeft=4;spacingRight=4;overflow=hidden;rotatable=0;points=[[0,0.5],[1,0.5]];portConstraint=eastwest;whiteSpace=wrap;html=1;" vertex="1" parent="keGv5HAL7lmnqRSHpo0z-49">
          <mxGeometry y="210" width="250" height="90" as="geometry" />
        </mxCell>
      </root>
    </mxGraphModel>
  </diagram>
</mxfile>
